# xmcd
#
# Track frame offsets: 
#        150
#        16948
#        33126
#        50532
#        65642
#        84579
#        98281
#        118073
#        129352
#        147739
#        162325
#
# Disc length: 2354 seconds
#
# Revision: 1
# Processed by: cddbd v1.5.2PL0 Copyright (c) Steve Scherf et al.
# Submitted via: ExactAudioCopy v0.95b4
#
DISCID=8d09300b
DTITLE=บอย-บัญชา-อาทิตย์-โรส - สามช่ากีต้าร์พิณ
DYEAR=2007
DGENRE=Country
TTITLE0=บอกมาเบิ่งดู
TTITLE1=คิดถึงทุ่งลุยลาย
TTITLE2=ทุยอดหญ้าข้าอดข้าว_สงสารพี่ทุย
TTITLE3=สาวอีสานรอรัก
TTITLE4=เสี่ยวอีสาน 
TTITLE5=สั่งฟ้าไปหาน้อง
TTITLE6=สาวอุดรใจดำ_สาวอุดรจำได้
TTITLE7=สัญญาเดือนสาม
TTITLE8=หัวใจซกเล็ก
TTITLE9=เหนื่อยแต่กายใจบ่ล้า
TTITLE10=คิดฮอดอ้ายแหน่เด้อ
EXTD=
EXTT0=
EXTT1=
EXTT2=
EXTT3=
EXTT4=
EXTT5=
EXTT6=
EXTT7=
EXTT8=
EXTT9=
EXTT10=
PLAYORDER=
